<?xml version="1.0" standalone="no"?>
<!DOCTYPE svg PUBLIC "-//W3C//DTD SVG 20010904//EN"
 "http://www.w3.org/TR/2001/REC-SVG-20010904/DTD/svg10.dtd">
<svg version="1.0" xmlns="http://www.w3.org/2000/svg"
 width="512.000000pt" height="512.000000pt" viewBox="0 0 512.000000 512.000000"
 preserveAspectRatio="xMidYMid meet">
<metadata>
Created by potrace 1.14, written by Peter Selinger 2001-2017
</metadata>
<g transform="translate(0.000000,512.000000) scale(0.100000,-0.100000)"
fill="#000000" stroke="none">
<path d="M33 5072 c5 -26 19 -56 31 -68 11 -11 29 -31 40 -44 14 -18 20 -20
26 -9 5 7 6 17 3 22 -3 5 9 22 26 38 29 26 35 28 79 19 26 -4 48 -7 50 -5 8 8
-20 46 -31 42 -7 -3 -27 10 -45 27 l-34 31 -15 -22 c-19 -28 -40 -30 -48 -4
-4 15 -15 19 -49 19 l-43 0 10 -46z"/>
<path d="M3924 5105 c-8 -20 4 -37 24 -33 38 6 57 -23 60 -96 1 -41 -3 -74 -9
-83 -9 -11 -8 -17 6 -27 12 -8 16 -19 11 -31 -10 -27 14 -84 38 -87 14 -2 23
-16 32 -51 16 -64 22 -67 46 -34 l21 29 14 -33 13 -32 24 22 24 22 27 -25 c32
-29 38 -31 65 -14 14 9 27 9 47 2 23 -8 28 -15 26 -39 -2 -19 4 -33 17 -42 31
-22 25 -58 -14 -88 -29 -22 -33 -30 -27 -48 5 -12 4 -33 -1 -46 -5 -14 -6 -38
-2 -54 5 -22 10 -28 25 -24 10 3 22 1 25 -4 8 -14 -73 -100 -114 -122 -19 -10
-30 -22 -26 -27 5 -4 140 -10 299 -13 238 -3 302 -7 360 -22 66 -18 141 -62
172 -104 10 -13 12 58 13 362 l0 377 -23 9 c-13 5 -29 16 -36 25 -11 13 -24
15 -57 10 -35 -5 -45 -3 -50 10 -3 9 -1 23 6 31 8 10 9 15 2 15 -18 0 -31 -33
-25 -63 5 -23 3 -26 -13 -21 -25 9 -74 55 -74 68 0 6 16 22 35 36 19 14 35 31
35 39 0 8 6 19 14 25 12 9 13 20 4 56 -5 25 -11 59 -12 75 -6 66 -3 65 -171
65 -193 0 -211 -6 -165 -55 12 -13 18 -29 14 -38 -10 -27 -25 -20 -18 8 8 32
-17 34 -38 3 -9 -14 -20 -19 -31 -15 -23 9 -21 28 3 34 15 4 19 11 15 24 -4
11 -2 19 4 19 6 0 11 5 11 10 0 6 -11 10 -23 10 -27 0 -61 -32 -50 -45 5 -5
-9 4 -29 19 -40 30 -72 30 -102 0 -20 -19 -42 -9 -25 12 10 12 -5 14 -97 14
-98 0 -110 -2 -122 -20 -7 -11 -19 -20 -28 -20 -11 0 -13 6 -9 20 9 28 -31 27
-63 -2 l-24 -23 -18 23 c-21 26 -29 27 -36 7z m296 -92 c0 -8 -12 -13 -30 -13
-22 0 -30 5 -30 18 0 31 21 44 42 25 10 -9 18 -22 18 -30z m108 -39 c12 -22 3
-60 -19 -80 -18 -17 -19 -15 -15 37 5 64 4 59 16 59 5 0 13 -7 18 -16z m-200
-11 c2 -8 -6 -13 -22 -13 -25 0 -33 10 -19 24 10 10 36 3 41 -11z m62 -40 c-1
-5 -20 -30 -44 -56 -36 -40 -44 -45 -48 -30 -8 30 38 93 67 93 14 0 25 -3 25
-7z m70 -133 c0 -5 -2 -10 -4 -10 -3 0 -8 5 -11 10 -3 6 -1 10 4 10 6 0 11 -4
11 -10z m505 -140 c3 -6 -1 -13 -10 -16 -19 -8 -30 0 -20 15 8 14 22 14 30 1z
m71 -15 c29 -44 3 -115 -41 -115 -40 0 -49 24 -21 57 19 22 22 33 14 47 -8 14
-7 21 3 27 21 13 27 11 45 -16z m-131 -5 c0 -8 -10 -16 -22 -18 -22 -3 -32 16
-16 32 12 11 38 2 38 -14z m265 -16 c0 -16 -26 -19 -35 -4 -3 6 -4 14 0 20 8
13 35 1 35 -16z m-472 -97 c2 -12 -3 -17 -17 -17 -12 0 -21 6 -21 13 0 31 32
34 38 4z m218 -22 c8 -20 -13 -45 -38 -45 -27 0 -35 30 -13 46 25 18 44 18 51
-1z m44 -64 c13 -25 13 -28 -5 -35 -16 -6 -40 28 -30 44 10 16 23 12 35 -9z
m-234 -49 c-18 -18 -36 -8 -36 22 0 34 13 40 33 15 16 -20 16 -24 3 -37z m284
33 c0 -8 -7 -15 -16 -15 -14 0 -14 3 -4 15 7 8 14 15 16 15 2 0 4 -7 4 -15z"/>
<path d="M5054 5065 c-11 -65 -32 -68 -60 -10 -15 32 -52 52 -41 23 2 -7 10
-12 16 -10 11 2 15 -11 12 -36 -3 -21 30 -52 55 -52 31 0 39 -16 20 -45 -9
-13 -16 -31 -16 -38 0 -8 -9 -22 -20 -32 -27 -24 -25 -35 5 -35 15 0 28 7 32
18 4 9 19 33 35 52 31 38 36 71 13 90 -17 14 -20 40 -5 40 16 0 12 13 -14 45
l-24 30 -8 -40z"/>
<path d="M667 4990 c-3 -11 -1 -23 4 -26 13 -7 39 14 39 32 0 22 -37 16 -43
-6z"/>
<path d="M612 4958 c3 -7 13 -15 22 -16 12 -3 17 1 14 10 -3 7 -13 15 -22 16
-12 3 -17 -1 -14 -10z"/>
<path d="M490 4793 c0 -41 13 -72 24 -55 3 5 18 8 33 6 l28 -4 -28 11 c-24 9
-28 15 -22 37 4 16 1 28 -7 33 -23 15 -28 10 -28 -28z"/>
<path d="M134 4779 c-10 -17 13 -36 27 -22 12 12 4 33 -11 33 -5 0 -12 -5 -16
-11z"/>
<path d="M345 4760 c-3 -6 0 -13 9 -16 9 -4 17 -26 22 -60 3 -30 8 -54 10 -54
2 0 12 8 22 18 24 25 28 79 6 103 -18 20 -59 26 -69 9z"/>
<path d="M0 4680 c0 -37 4 -52 18 -59 26 -14 48 2 27 19 -8 7 -15 23 -15 35 0
30 -10 55 -21 55 -5 0 -9 -22 -9 -50z"/>
<path d="M192 4639 c2 -7 10 -15 17 -17 8 -3 12 1 9 9 -2 7 -10 15 -17 17 -8
3 -12 -1 -9 -9z"/>
<path d="M635 4500 c-3 -5 -1 -10 4 -10 6 0 11 5 11 10 0 6 -2 10 -4 10 -3 0
-8 -4 -11 -10z"/>
<path d="M4 4336 c1 -83 4 -106 16 -110 8 -4 21 -9 28 -12 7 -3 12 2 12 14 0
11 6 25 14 31 7 6 16 30 20 53 4 23 14 47 23 53 26 19 9 39 -49 58 -30 9 -57
17 -60 17 -3 0 -5 -47 -4 -104z"/>
<path d="M928 4375 c-9 -10 4 -55 16 -55 14 0 36 20 36 32 0 4 -7 8 -15 8 -8
0 -15 5 -15 10 0 11 -13 13 -22 5z"/>
<path d="M265 4274 c-5 -1 -26 -5 -46 -8 -39 -7 -54 -30 -37 -60 12 -22 35
-20 43 4 4 12 15 20 29 20 31 0 51 23 34 37 -7 6 -17 9 -23 7z"/>
<path d="M1692 4162 c-43 -43 -64 -74 -77 -112 -14 -41 -21 -51 -35 -47 -25 6
-42 -6 -34 -26 3 -9 11 -14 17 -10 5 3 16 -2 23 -11 10 -14 16 -15 33 -6 12 6
21 20 21 32 0 28 11 17 14 -16 2 -14 0 -23 -5 -20 -19 12 -38 -59 -40 -153 -1
-13 -5 -23 -9 -23 -6 0 -14 -23 -26 -80 -7 -30 -14 -86 -18 -137 l-4 -51 95
-22 c106 -25 208 -24 258 3 l30 16 -32 13 c-33 12 -44 28 -21 28 9 0 9 3 1 11
-13 13 -56 2 -48 -12 4 -5 -1 -9 -9 -9 -9 0 -16 4 -16 9 0 5 -22 17 -50 26
-27 9 -53 21 -56 27 -6 10 43 68 58 68 4 0 8 -15 8 -34 0 -49 19 -60 92 -52
34 4 71 12 81 18 26 13 39 -6 34 -49 -2 -25 1 -33 13 -33 62 1 259 144 275
200 4 14 16 34 26 45 23 26 21 92 -4 110 -9 7 -17 19 -17 28 0 9 -9 21 -20 27
-26 14 -74 62 -76 77 -3 20 -38 61 -61 72 -12 6 -25 21 -29 35 -3 13 -13 27
-22 30 -10 3 -23 9 -31 12 -10 5 -11 3 -6 -7 5 -8 -2 -5 -14 6 -18 15 -24 16
-30 6 -6 -10 -14 -10 -28 -3 -10 6 -37 13 -59 16 -55 7 -85 16 -116 38 l-27
19 -59 -59z m30 -124 c-7 -7 -8 -17 -1 -30 7 -13 6 -18 -3 -18 -17 0 -47 20
-31 20 6 0 15 9 18 20 3 11 11 20 18 20 8 0 8 -3 -1 -12z m-52 -118 c0 -5 -4
-10 -10 -10 -5 0 -10 5 -10 10 0 6 5 10 10 10 6 0 10 -4 10 -10z m-25 -30 c3
-5 1 -10 -4 -10 -6 0 -11 5 -11 10 0 6 2 10 4 10 3 0 8 -4 11 -10z"/>
<path d="M3832 4146 c-24 -35 -63 -83 -88 -107 -24 -24 -44 -53 -44 -64 0 -25
-10 -50 -72 -174 -27 -53 -48 -97 -48 -99 0 -3 28 22 63 54 83 78 134 96 297
105 159 8 179 16 110 39 -29 10 -64 27 -79 38 -14 12 -49 33 -77 47 l-50 26 0
58 c1 32 6 64 12 72 16 22 34 69 26 69 -4 0 -26 -29 -50 -64z"/>
<path d="M3946 4168 c-22 -54 -29 -98 -16 -98 7 0 10 7 6 15 -3 8 -1 15 4 15
6 0 10 7 10 15 0 8 5 14 11 13 6 -2 13 4 14 12 2 8 4 20 5 25 10 44 -16 46
-34 3z"/>
<path d="M416 4181 c-10 -15 18 -39 54 -46 l34 -7 -31 31 c-32 32 -48 38 -57
22z"/>
<path d="M130 4140 c0 -11 7 -20 15 -20 17 0 18 2 9 24 -9 23 -24 20 -24 -4z"/>
<path d="M360 4081 c0 -5 5 -13 10 -16 6 -3 10 -2 10 4 0 5 -4 13 -10 16 -5 3
-10 2 -10 -4z"/>
<path d="M980 4048 c-39 -69 -60 -236 -40 -309 16 -56 48 -65 179 -51 162 18
190 16 259 -19 34 -17 71 -42 83 -57 l21 -27 -28 -20 c-15 -11 -46 -36 -68
-56 -23 -20 -70 -62 -106 -92 -79 -69 -97 -86 -169 -162 -52 -55 -72 -78 -132
-155 -11 -14 -44 -56 -74 -93 -30 -38 -58 -74 -62 -80 -5 -7 -25 -25 -47 -41
-21 -16 -46 -41 -54 -56 -10 -18 -33 -34 -65 -45 -57 -21 -65 -34 -41 -70 15
-22 15 -28 3 -39 -15 -13 -173 -112 -224 -140 -16 -9 -52 -32 -80 -51 -27 -19
-74 -51 -102 -70 -31 -21 -64 -55 -79 -81 -14 -24 -32 -44 -39 -44 -7 0 -35
-10 -64 -21 l-51 -22 0 -453 0 -453 35 -10 c43 -12 86 -41 147 -99 l46 -44 14
23 c64 105 91 144 144 210 57 71 198 213 219 221 5 2 8 -35 6 -93 -1 -53 3
-115 9 -139 12 -46 16 -292 5 -310 -4 -7 -9 -33 -11 -58 -2 -26 -6 -67 -9 -92
-2 -25 -7 -85 -10 -135 -12 -193 -14 -221 -22 -260 -6 -30 -13 -41 -30 -43
-18 -2 -20 1 -16 19 4 15 2 20 -5 15 -8 -4 -9 6 -6 33 2 22 0 42 -6 46 -5 3
-10 1 -10 -5 0 -6 -7 -22 -16 -36 -13 -19 -19 -22 -30 -13 -12 10 -10 17 12
46 14 19 23 37 19 41 -4 4 -13 -2 -21 -12 -11 -16 -16 -17 -29 -6 -17 14 -20
40 -4 40 5 0 7 5 4 10 -4 6 -12 5 -21 -4 -19 -19 -18 -28 6 -49 25 -21 25 -37
1 -44 -13 -3 -18 -10 -14 -21 5 -12 2 -14 -11 -9 -14 6 -17 3 -12 -10 4 -9 1
-20 -5 -24 -9 -5 -6 -16 10 -37 12 -18 17 -33 12 -37 -16 -9 -1 -34 16 -28 13
5 15 0 11 -25 -3 -22 0 -32 11 -35 9 -2 22 -25 29 -53 12 -42 22 -69 40 -106
2 -5 -3 -8 -12 -8 -9 0 -16 5 -16 10 0 21 -16 9 -27 -21 -10 -26 -15 -29 -31
-20 -19 10 -32 6 -32 -11 0 -4 7 -8 15 -8 8 0 12 -6 9 -13 -3 -8 2 -20 11 -27
14 -12 18 -11 27 1 7 10 8 7 4 -13 -4 -17 -2 -28 4 -28 6 0 8 -10 4 -25 -5
-19 -2 -25 10 -25 9 0 16 -4 16 -10 0 -7 354 -10 1040 -10 658 0 1040 4 1040
10 0 5 7 7 15 4 11 -4 13 -2 9 9 -4 12 7 14 70 12 64 -2 76 0 76 14 0 10 10 5
29 -17 29 -31 31 -32 118 -32 53 0 83 4 75 9 -8 5 -12 17 -10 27 4 16 7 15 18
-9 11 -22 20 -27 48 -27 33 0 34 1 30 32 -5 28 -4 29 9 13 7 -11 13 -25 13
-32 0 -7 9 -13 20 -13 13 0 18 5 14 15 -4 8 -1 15 5 15 6 0 11 -7 11 -15 0
-11 12 -15 51 -15 37 0 48 3 43 13 -6 9 -4 9 7 -1 7 -6 24 -12 37 -12 19 0 22
4 17 20 -4 11 -2 20 4 20 6 0 11 -9 11 -20 0 -20 7 -20 717 -20 684 0 718 1
737 19 29 25 80 41 137 41 26 0 50 4 53 8 3 5 15 51 26 103 27 118 46 151 110
178 l49 21 0 110 c0 60 -4 112 -9 115 -6 3 -10 12 -10 18 0 7 4 6 10 -3 8 -13
10 -13 10 2 0 9 -6 18 -13 21 -9 4 -9 7 1 18 6 7 12 34 12 60 0 40 -4 51 -31
73 -16 14 -37 29 -45 34 -8 5 -16 16 -18 25 -3 20 -16 35 -16 18 0 -7 -5 -9
-11 -6 -6 4 -8 13 -5 20 3 8 -2 19 -10 26 -13 10 -17 10 -25 -2 -8 -10 -9 -8
-4 9 5 16 2 22 -9 22 -9 0 -16 -5 -16 -11 0 -6 -9 -8 -22 -3 -21 6 -21 6 -5
-11 14 -13 15 -20 6 -31 -6 -8 -18 -14 -25 -14 -8 0 -11 -6 -7 -17 5 -12 2
-15 -10 -10 -11 4 -14 2 -10 -9 4 -10 0 -12 -13 -7 -11 4 -15 3 -10 -5 3 -6
-4 -35 -18 -64 -13 -29 -27 -63 -31 -75 -9 -32 -25 -28 -25 6 0 15 -11 93 -25
172 -14 79 -28 180 -31 224 -3 44 -10 96 -15 115 -14 58 -21 417 -9 479 6 31
16 81 22 111 6 30 17 66 25 79 8 12 13 32 10 42 -3 10 3 41 14 69 10 28 19 58
19 68 0 9 14 44 30 77 16 33 30 72 30 87 0 45 10 58 44 58 27 0 160 -28 224
-46 28 -8 29 8 1 46 -12 16 -23 47 -25 70 -3 50 -27 90 -54 90 -11 0 -25 12
-32 27 -10 20 -22 27 -51 30 -20 2 -46 -1 -57 -7 -16 -9 -18 -15 -10 -36 7
-19 6 -33 -7 -57 l-16 -32 -9 30 c-4 17 -5 38 -2 48 7 23 -8 22 -37 -4 -36
-33 -100 -59 -143 -59 -37 0 -38 -1 -31 -27 6 -27 6 -27 -14 -9 -11 10 -17 24
-15 31 5 12 -44 55 -62 55 -4 0 -15 7 -25 16 -21 19 -39 11 -39 -17 0 -10 -4
-19 -10 -19 -13 0 -13 37 0 45 6 3 10 11 10 18 0 8 -3 8 -12 -1 -7 -7 -22 -12
-35 -12 -20 0 -22 -2 -11 -20 7 -10 9 -22 5 -26 -12 -12 -57 18 -57 38 0 12
-7 18 -21 18 -27 0 -79 31 -79 47 0 7 4 13 10 13 19 0 60 -24 60 -35 0 -7 8
-15 18 -19 9 -3 23 -9 30 -12 6 -3 12 0 12 8 0 16 -51 62 -105 95 -36 22 -37
24 -12 20 15 -2 27 -1 27 3 0 11 -27 20 -58 20 -26 1 -26 1 -8 15 19 14 19 15
0 21 -10 3 -43 17 -73 30 -45 21 -66 24 -139 22 l-85 -3 83 -75 c50 -45 85
-70 87 -62 6 17 33 15 33 -3 0 -8 -7 -15 -15 -15 -13 0 -12 -7 6 -42 12 -24
27 -46 33 -50 8 -5 7 -11 -2 -20 -18 -18 -15 -68 5 -90 17 -19 16 -20 -5 -37
-15 -11 -21 -23 -16 -34 4 -12 1 -17 -11 -17 -11 0 -15 -5 -11 -15 3 -9 0 -15
-9 -15 -16 0 -30 -35 -20 -50 4 -6 14 -9 22 -8 9 2 18 -3 21 -11 3 -9 0 -12
-10 -8 -8 3 -22 -3 -31 -14 -9 -10 -12 -19 -7 -19 14 0 12 -28 -2 -32 -7 -3
-12 -21 -11 -42 1 -33 -2 -37 -27 -43 -26 -5 -27 -7 -17 -25 10 -16 9 -22 -5
-32 -10 -7 -18 -21 -18 -31 0 -14 -3 -15 -15 -5 -12 10 -15 9 -15 -4 0 -9 12
-21 28 -27 24 -9 25 -11 9 -20 -17 -10 -87 -143 -87 -166 0 -7 -4 -13 -9 -13
-5 0 -12 -14 -16 -30 -4 -17 -11 -30 -16 -30 -5 0 -9 -6 -9 -14 0 -7 -13 -30
-30 -51 -16 -21 -30 -43 -30 -50 0 -7 -7 -18 -15 -25 -9 -7 -13 -15 -11 -18 3
-2 -4 -16 -14 -30 -11 -13 -20 -29 -20 -34 0 -17 -48 -107 -70 -130 -11 -12
-20 -32 -20 -45 0 -13 -6 -26 -14 -29 -8 -3 -17 -16 -20 -30 -4 -13 -10 -24
-15 -24 -5 0 -20 -21 -33 -47 -12 -27 -35 -63 -50 -81 -16 -18 -28 -42 -28
-52 0 -11 -4 -20 -10 -20 -17 0 -80 -62 -80 -79 0 -29 -16 -42 -61 -52 -24 -6
-49 -15 -56 -21 -19 -15 -16 -65 4 -77 10 -5 14 -13 10 -18 -5 -4 -18 4 -29
20 -24 33 -67 37 -75 7 -4 -15 -11 -19 -24 -15 -10 3 -27 1 -39 -5 -15 -8 -19
-17 -14 -36 6 -24 5 -25 -14 -15 -27 14 -65 5 -88 -20 -22 -24 -14 -85 20
-150 14 -27 21 -51 15 -54 -5 -4 -9 1 -9 9 0 8 -8 21 -18 28 -10 7 -23 31 -30
53 -16 53 -35 77 -56 69 -20 -8 -21 -52 -1 -78 8 -11 15 -31 15 -45 -1 -25 -1
-25 -15 6 -15 34 -49 73 -65 73 -21 0 -9 -48 20 -75 45 -43 36 -52 -12 -11
-27 24 -52 36 -71 36 -30 0 -30 1 -10 -47 3 -8 -4 -13 -18 -13 -37 0 -52 -15
-47 -44 4 -21 1 -26 -16 -27 -11 0 -31 -2 -43 -5 -64 -12 -226 -26 -280 -25
-51 1 -66 -2 -83 -19 -11 -11 -24 -20 -29 -20 -5 0 -14 -7 -22 -16 -10 -13
-27 -14 -98 -9 -118 9 -120 10 -127 56 -5 30 -12 41 -30 45 -15 4 -24 14 -24
25 0 10 -7 19 -15 19 -8 0 -22 11 -31 26 -9 14 -23 23 -29 20 -7 -2 -22 2 -33
10 -17 12 -42 20 -74 23 -3 1 -4 9 -2 19 6 24 -4 35 -58 61 -25 12 -49 28 -52
36 -3 8 -14 15 -23 15 -10 0 -26 9 -36 20 -12 15 -24 19 -42 14 -19 -5 -25 -2
-25 10 0 9 -8 16 -18 16 -9 0 -23 9 -29 19 -10 16 -9 22 3 32 13 10 13 15 -1
35 -8 13 -15 31 -15 40 0 11 -5 14 -16 10 -11 -4 -15 -2 -11 8 3 8 -3 22 -14
32 -10 9 -19 13 -19 8 0 -5 -7 4 -15 19 -8 15 -12 34 -9 41 3 8 1 17 -5 21 -6
3 -8 17 -5 31 5 19 1 26 -16 32 -21 8 -21 9 -5 25 9 10 14 24 11 32 -6 17 -26
20 -26 5 0 -5 5 -10 12 -10 9 0 9 -3 0 -12 -17 -17 -53 21 -55 58 -1 15 -12
38 -24 51 -13 12 -23 29 -23 38 0 22 -30 66 -41 59 -18 -11 -8 20 13 43 22 23
12 33 -10 11 -15 -15 -34 1 -37 34 -1 13 -3 29 -4 36 0 6 -8 12 -17 12 -12 0
-15 6 -10 24 4 15 0 28 -9 36 -9 7 -13 21 -10 31 3 9 1 20 -5 24 -15 9 -12 25
6 25 8 0 12 5 9 10 -3 6 -1 10 4 10 6 0 11 8 11 18 1 15 2 15 16 -3 21 -28 29
-66 15 -74 -17 -11 -2 -42 18 -39 10 2 16 -4 16 -17 0 -21 17 -45 33 -45 11 0
42 -71 42 -95 0 -8 9 -15 20 -15 21 0 70 -47 70 -67 0 -7 4 -13 9 -13 13 0 21
-42 10 -56 -7 -8 -1 -15 21 -22 16 -6 30 -16 30 -21 0 -6 12 -8 30 -5 17 4 30
2 30 -4 0 -5 9 -12 20 -15 13 -3 18 -10 14 -21 -5 -13 1 -16 25 -16 24 0 31
-4 31 -20 0 -16 7 -20 33 -20 17 -1 50 -7 72 -15 55 -20 89 -20 81 1 -3 9 -6
23 -6 31 0 11 -7 14 -24 9 -16 -4 -26 -1 -30 9 -3 9 -15 14 -34 11 -35 -4 -76
33 -66 59 6 15 4 16 -16 5 -19 -10 -24 -10 -32 4 -5 9 -14 16 -19 16 -15 0
-36 24 -41 46 -2 10 -10 18 -16 16 -7 -1 -12 2 -12 8 0 5 -7 10 -15 10 -18 0
-38 37 -31 56 3 8 -1 14 -10 14 -8 0 -12 5 -9 10 4 6 -10 25 -29 42 -27 24
-36 40 -36 64 0 20 -6 34 -16 38 -10 4 -14 12 -10 22 9 24 -3 37 -22 22 -12
-10 -14 -10 -8 0 4 7 1 15 -9 18 -10 4 -15 16 -13 32 2 18 -3 30 -17 37 -21
11 -32 35 -15 35 11 0 -8 40 -24 52 -6 3 -10 34 -10 67 -1 34 -4 61 -8 61 -12
0 -9 38 2 45 7 4 8 11 2 18 -13 17 16 105 37 110 14 4 14 5 -1 6 -15 1 -14 5
6 26 13 14 27 38 31 52 3 15 26 56 50 92 23 37 50 89 60 118 l16 52 -34 59
c-80 137 -90 179 -128 575 -24 260 10 406 137 572 39 51 59 91 77 150 39 125
41 151 18 181 -23 29 -18 52 15 65 14 5 24 17 24 29 0 16 -7 20 -30 20 -27 0
-30 3 -28 27 4 35 -23 42 -53 14 l-21 -20 27 -25 c21 -19 26 -31 21 -50 -4
-15 0 -28 9 -36 19 -16 19 -31 0 -24 -7 3 -30 -7 -50 -22 -33 -24 -39 -26 -73
-16 -20 6 -55 13 -77 16 -22 3 -68 18 -101 33 -59 27 -62 30 -67 70 -7 64 -66
178 -98 190 -25 10 -29 7 -49 -29z m3215 -1566 c-8 -8 -25 10 -25 26 0 13 2
13 14 -4 8 -10 13 -21 11 -22z m29 -54 c3 -16 2 -28 -3 -28 -11 0 -21 25 -21
53 0 27 15 11 24 -25z m690 17 c-4 -8 -10 -13 -15 -10 -4 3 -6 12 -3 20 4 8
10 13 15 10 4 -3 6 -12 3 -20z m36 -45 c0 -5 -7 -10 -16 -10 -8 0 -12 5 -9 10
3 6 10 10 16 10 5 0 9 -4 9 -10z m-750 -15 c10 -13 9 -15 -8 -15 -22 0 -36 13
-25 24 10 10 20 7 33 -9z m131 -11 c6 -8 9 -14 6 -14 -13 0 -57 24 -57 31 0
11 38 -1 51 -17z m107 -27 c15 -12 16 -37 1 -37 -16 0 -80 46 -72 53 7 8 53
-2 71 -16z m145 11 c-4 -7 -8 -21 -8 -30 0 -28 -18 -25 -26 4 -8 31 -3 38 23
38 13 0 17 -4 11 -12z m-204 -50 c22 -24 41 -46 41 -50 0 -11 -18 -10 -25 2
-3 6 -16 10 -29 10 -12 0 -33 11 -46 25 -13 14 -32 25 -42 25 -31 0 -20 19 15
23 17 2 35 5 39 5 3 1 25 -17 47 -40z m-89 -38 c0 -5 6 -10 13 -10 6 0 34 -14
62 -32 44 -27 47 -32 30 -39 -34 -13 -92 -10 -105 6 -7 8 -16 13 -20 10 -8 -5
-20 55 -13 68 6 11 33 9 33 -3z m274 -21 c-17 -34 -37 -28 -28 9 4 13 14 22
25 22 19 0 19 -2 3 -31z m56 7 c0 -17 6 -26 19 -28 17 -3 18 -5 6 -22 -12 -16
-17 -17 -30 -6 -12 10 -15 10 -15 -4 0 -25 -19 -19 -26 9 -4 16 0 34 10 50 21
32 36 32 36 1z m-112 5 c10 -6 10 -10 -1 -20 -12 -9 -16 -7 -20 9 -5 21 0 25
21 11z m-41 -68 c-2 -16 -4 -5 -4 22 0 28 2 40 4 28 2 -13 2 -35 0 -50z m103
-60 c0 -13 -5 -34 -11 -45 -9 -17 -13 -18 -20 -7 -10 16 -12 73 -3 82 13 12
34 -6 34 -30z m-60 17 c0 -7 -27 -73 -37 -89 -6 -9 -63 26 -72 45 -14 32 18
43 41 15 22 -29 30 -26 22 7 -7 24 -6 26 9 13 15 -12 17 -11 17 3 0 9 5 16 10
16 6 0 10 -4 10 -10z m99 -12 c0 -7 -4 -22 -8 -32 -10 -25 -22 -6 -14 22 6 23
23 31 22 10z m-323 -32 c16 -17 35 -66 25 -66 -5 0 -16 11 -25 25 -9 14 -24
25 -34 25 -19 0 -42 18 -42 33 0 11 62 -2 76 -17z m87 7 c2 -5 1 -21 -3 -38
l-6 -30 -5 38 c-4 33 3 50 14 30z m237 -94 c0 -6 -4 -7 -10 -4 -5 3 -10 11
-10 16 0 6 5 7 10 4 6 -3 10 -11 10 -16z m-383 -28 c29 -21 29 -34 1 -26 -36
10 -108 44 -108 51 0 11 85 -9 107 -25z m383 -22 c0 -10 5 -19 10 -19 6 0 10
-4 10 -10 0 -5 -6 -9 -12 -7 -7 1 -12 -4 -10 -10 3 -19 -15 -16 -22 3 -8 21
-8 59 0 67 11 10 24 -3 24 -24z m-184 -21 c-8 -45 -13 -71 -15 -82 0 -5 -9 -2
-19 7 -10 10 -25 17 -33 17 -33 1 -66 45 -60 83 0 4 31 7 67 7 l66 0 -6 -32z
m-225 -77 c30 -37 23 -62 -6 -26 -21 25 -27 28 -35 15 -8 -13 -14 -11 -36 12
-23 23 -25 29 -15 42 12 14 16 14 43 -2 17 -9 39 -28 49 -41z m327 0 c2 -29 0
-41 -8 -36 -5 3 -8 10 -5 14 2 5 0 23 -5 40 -7 24 -6 31 3 28 7 -2 13 -23 15
-46z m-42 12 c7 -18 7 -39 0 -60 -9 -32 -26 -45 -26 -22 0 6 -9 9 -20 6 -11
-3 -20 -1 -20 4 0 5 7 9 16 9 10 0 14 5 10 15 -3 9 1 18 10 22 11 4 14 13 10
29 -9 33 8 30 20 -3z m130 -25 c-4 -29 -17 -38 -37 -28 -16 9 -17 13 -7 25 16
18 47 19 44 3z m-237 -69 c3 -11 1 -12 -10 -2 -9 7 -28 11 -43 10 -21 -1 -30
4 -36 19 l-8 21 46 -17 c25 -10 48 -24 51 -31z m70 -16 c-1 -10 -4 -28 -7 -40
-7 -21 -8 -21 -29 -4 -29 24 -21 61 13 61 17 0 24 -5 23 -17z m148 -20 c3 -10
15 -28 26 -40 11 -13 17 -24 14 -24 -4 -1 -13 -2 -19 -3 -14 -2 -14 -5 -3 -49
5 -16 3 -27 -3 -27 -17 0 -26 22 -28 65 -1 22 -5 52 -9 68 -8 30 11 39 22 10z
m-407 -13 c11 -11 20 -26 19 -32 0 -7 -5 -3 -11 10 -6 12 -17 22 -24 22 -7 0
-16 5 -19 10 -11 18 14 11 35 -10z m-102 -8 c2 -7 -1 -12 -8 -12 -6 0 -9 4 -6
9 4 5 1 12 -4 14 -6 3 -5 4 2 3 6 -1 14 -8 16 -14z m278 -25 c16 -53 5 -60
-32 -20 -26 27 -31 39 -22 45 26 16 43 7 54 -25z m-86 19 c0 -3 -4 -8 -10 -11
-5 -3 -10 -1 -10 4 0 6 5 11 10 11 6 0 10 -2 10 -4z m202 -38 c-9 -9 -12 -7
-12 12 0 19 3 21 12 12 9 -9 9 -15 0 -24z m-273 -40 c19 -30 6 -32 -23 -3 -31
31 -32 35 -8 28 10 -2 24 -13 31 -25z m201 10 c0 -16 -3 -19 -11 -11 -6 6 -8
16 -5 22 11 17 16 13 16 -11z m-405 -38 c3 -6 -1 -7 -9 -4 -18 7 -21 14 -7 14
6 0 13 -4 16 -10z m-2824 -33 c-13 -13 -26 -3 -16 12 3 6 11 8 17 5 6 -4 6
-10 -1 -17z m3106 -5 c16 -13 20 -24 16 -44 -3 -16 -9 -28 -14 -28 -5 0 -7 11
-3 25 5 19 2 25 -10 25 -9 0 -16 2 -16 4 0 2 -3 11 -6 20 -8 21 5 20 33 -2z
m166 -7 c-3 -9 -8 -14 -10 -11 -3 3 -2 9 2 15 9 16 15 13 8 -4z m-323 -15 c0
-5 -2 -10 -4 -10 -3 0 -8 5 -11 10 -3 6 -1 10 4 10 6 0 11 -4 11 -10z m235
-71 c1 -61 -1 -66 -12 -45 -8 15 -10 42 -6 75 8 70 17 55 18 -30z m-189 36 c3
-19 10 -38 15 -41 12 -7 12 -24 0 -24 -5 0 -16 21 -25 47 -19 55 -19 53 -6 53
5 0 12 -16 16 -35z m-183 0 c25 -23 37 -55 19 -55 -14 0 -32 23 -32 42 0 9 -8
22 -17 27 -10 6 -13 10 -8 10 6 0 22 -11 38 -24z m582 -4 c3 -5 1 -12 -4 -15
-5 -3 -11 1 -15 9 -6 16 9 21 19 6z m35 -21 c0 -11 -2 -20 -4 -20 -2 0 -6 9
-9 20 -3 11 -1 20 4 20 5 0 9 -9 9 -20z m-295 -119 c4 -20 10 -43 14 -51 7
-13 8 -46 2 -90 -1 -8 -8 -2 -15 15 -7 17 -11 33 -9 38 2 4 -1 7 -6 7 -6 0
-11 5 -11 10 0 6 7 10 15 10 13 0 14 4 4 22 -11 20 -13 20 -24 5 -11 -16 -13
-16 -19 -1 -11 28 -7 46 9 40 20 -7 19 11 -2 22 -14 8 -14 12 -2 25 13 14 15
14 26 0 7 -9 15 -33 18 -52z m-360 14 c19 -33 15 -59 -5 -39 -14 14 -31 74
-21 74 4 0 16 -16 26 -35z m184 -83 c6 -20 6 -34 0 -38 -6 -3 -13 3 -16 15 -3
12 -11 21 -19 21 -7 0 -16 11 -20 25 -3 13 -12 29 -20 36 -8 6 -14 21 -14 33
0 18 5 15 40 -19 22 -22 44 -55 49 -73z m241 48 c0 -5 -2 -10 -4 -10 -3 0 -8
5 -11 10 -3 6 -1 10 4 10 6 0 11 -4 11 -10z m-501 -36 c18 -23 30 -84 17 -84
-24 0 -36 17 -36 49 0 20 -5 42 -12 49 -8 8 -9 12 -1 12 6 0 21 -12 32 -26z
m-31 -125 c-18 -12 -23 8 -6 28 12 15 13 15 16 -2 2 -10 -2 -21 -10 -26z m142
31 c0 -5 14 -25 30 -43 36 -42 40 -82 8 -90 -26 -7 -38 1 -19 12 10 6 10 10 1
16 -7 4 -9 18 -5 37 5 21 4 28 -4 24 -6 -4 -15 4 -21 19 -12 33 -12 35 0 35 6
0 10 -4 10 -10z m195 -56 c27 -18 33 -34 12 -34 -20 0 -58 30 -52 41 8 12 12
12 40 -7z m-388 -60 c-9 -9 -40 23 -50 51 -6 15 1 11 25 -12 17 -18 29 -36 25
-39z m585 16 c-14 -14 -22 -16 -31 -7 -16 16 -14 48 3 41 8 -3 17 0 21 7 6 8
10 7 17 -6 7 -12 5 -21 -10 -35z m-478 -32 c26 -36 18 -52 -9 -20 -14 17 -25
33 -25 36 0 14 20 4 34 -16z m356 1 c17 -30 6 -34 -14 -4 -9 14 -12 25 -7 25
6 0 15 -9 21 -21z m-470 -9 c0 -5 -4 -10 -10 -10 -5 0 -10 5 -10 10 0 6 5 10
10 10 6 0 10 -4 10 -10z m770 -35 c0 -9 -6 -12 -15 -9 -8 4 -15 10 -15 15 0 5
7 9 15 9 8 0 15 -7 15 -15z m-744 -17 c4 -6 2 -14 -4 -16 -7 -2 -12 -13 -13
-25 0 -22 0 -22 -9 1 -15 36 7 70 26 40z m-146 -19 c0 -6 -4 -7 -10 -4 -5 3
-10 11 -10 16 0 6 5 7 10 4 6 -3 10 -11 10 -16z m906 -6 c-10 -10 -19 5 -10
18 6 11 8 11 12 0 2 -7 1 -15 -2 -18z m-646 -13 c0 -5 -5 -10 -11 -10 -5 0 -7
5 -4 10 3 6 8 10 11 10 2 0 4 -4 4 -10z m380 -22 c0 -13 3 -34 7 -48 6 -22 5
-24 -10 -11 -18 15 -24 81 -7 81 6 0 10 -10 10 -22z m-695 -19 c11 -17 -1 -21
-15 -4 -8 9 -8 15 -2 15 6 0 14 -5 17 -11z m123 -25 c31 -30 34 -34 13 -29
-25 8 -71 44 -71 57 0 17 22 7 58 -28z m302 -10 c16 -40 13 -44 -30 -44 -27 0
-40 4 -40 13 0 8 10 13 23 13 17 -1 21 4 20 22 -4 30 15 28 27 -4z m90 -4 c0
-5 -2 -10 -4 -10 -3 0 -8 5 -11 10 -3 6 -1 10 4 10 6 0 11 -4 11 -10z m-232
-63 c12 -18 22 -43 22 -55 0 -20 -2 -21 -20 -10 -13 9 -20 24 -20 45 0 18 -4
33 -9 33 -5 0 -11 7 -14 14 -10 26 17 7 41 -27z m-119 -18 c-20 -13 -35 -11
-21 3 7 7 12 21 13 33 0 19 1 19 12 -3 8 -19 8 -25 -4 -33z m451 31 c0 -5 -4
-10 -10 -10 -5 0 -10 5 -10 10 0 6 5 10 10 10 6 0 10 -4 10 -10z m-590 -52
c51 -76 52 -78 41 -78 -5 0 -22 19 -38 41 -15 23 -36 50 -45 60 -21 23 -22 29
-5 29 7 0 28 -23 47 -52z m424 6 c9 -35 -8 -53 -23 -26 -11 21 -6 52 9 52 4 0
11 -12 14 -26z m-479 -14 c3 -5 1 -10 -4 -10 -6 0 -11 5 -11 10 0 6 2 10 4 10
3 0 8 -4 11 -10z m215 -15 c0 -8 -2 -15 -4 -15 -2 0 -6 7 -10 15 -3 8 -1 15 4
15 6 0 10 -7 10 -15z m1270 -25 c0 -5 -2 -10 -4 -10 -3 0 -8 5 -11 10 -3 6 -1
10 4 10 6 0 11 -4 11 -10z m-1590 -42 c30 -33 36 -45 28 -56 -9 -11 -19 -5
-49 30 -65 73 -45 97 21 26z m427 26 c-3 -3 -12 -4 -19 -1 -8 3 -5 6 6 6 11 1
17 -2 13 -5z m273 -45 c0 -10 -30 -32 -31 -23 0 5 -2 19 -3 30 -2 19 0 20 16
11 10 -7 18 -15 18 -18z m-180 -50 c0 -5 -7 -9 -15 -9 -9 0 -15 9 -15 21 0 18
2 19 15 9 8 -7 15 -16 15 -21z m1090 -29 c0 -5 -2 -10 -4 -10 -3 0 -8 5 -11
10 -3 6 -1 10 4 10 6 0 11 -4 11 -10z m-1910 -30 c13 -8 13 -10 -2 -10 -9 0
-20 5 -23 10 -8 13 5 13 25 0z m-60 -10 c8 -5 11 -10 5 -10 -5 0 -17 5 -25 10
-8 5 -10 10 -5 10 6 0 17 -5 25 -10z m77 -32 c-3 -8 -6 -5 -6 6 -1 11 2 17 5
13 3 -3 4 -12 1 -19z m-2707 -28 c0 -4 -6 -10 -14 -13 -10 -4 -12 0 -9 14 5
18 23 18 23 -1z m3700 -30 c0 -5 -4 -10 -10 -10 -5 0 -10 5 -10 10 0 6 5 10
10 10 6 0 10 -4 10 -10z m-1084 -25 c9 -13 14 -28 12 -33 -1 -5 -13 6 -25 24
-12 19 -18 34 -13 34 5 0 17 -11 26 -25z m712 -3 c4 -25 -13 -30 -22 -6 -9 25
-7 36 7 32 6 -3 13 -14 15 -26z m-508 -22 c0 -13 -5 -18 -15 -14 -8 4 -15 12
-15 20 0 8 7 14 15 14 8 0 15 -9 15 -20z m130 -47 l0 -37 -22 21 c-18 18 -19
24 -8 37 20 25 30 19 30 -21z m1110 -4 c0 -6 -4 -7 -10 -4 -5 3 -10 11 -10 16
0 6 5 7 10 4 6 -3 10 -11 10 -16z m-1240 -4 c0 -8 -2 -15 -4 -15 -2 0 -6 7
-10 15 -3 8 -1 15 4 15 6 0 10 -7 10 -15z m-286 -34 c-6 -6 -24 19 -24 34 1 6
7 1 15 -9 8 -11 12 -22 9 -25z m-139 -1 c3 -5 1 -10 -4 -10 -6 0 -11 5 -11 10
0 6 2 10 4 10 3 0 8 -4 11 -10z m435 6 c0 -3 -4 -8 -10 -11 -5 -3 -10 -1 -10
4 0 6 5 11 10 11 6 0 10 -2 10 -4z m1035 -6 c3 -5 1 -10 -4 -10 -6 0 -11 5
-11 10 0 6 2 10 4 10 3 0 8 -4 11 -10z m-927 -18 c2 -7 -2 -10 -12 -6 -9 3
-16 11 -16 16 0 13 23 5 28 -10z m-507 -9 c13 -16 12 -17 -3 -4 -17 13 -22 21
-14 21 2 0 10 -8 17 -17z m279 -38 c17 -21 5 -31 -15 -12 -8 9 -15 18 -15 21
0 11 18 6 30 -9z m245 -55 c-5 -8 -13 -5 -27 9 -26 28 -12 50 14 23 12 -11 17
-25 13 -32z m-135 8 c0 -19 -2 -20 -10 -8 -13 19 -13 30 0 30 6 0 10 -10 10
-22z m250 -17 c16 -30 12 -36 -10 -16 -21 19 -26 35 -10 35 5 0 14 -9 20 -19z
m485 -21 c3 -6 -1 -7 -9 -4 -18 7 -21 14 -7 14 6 0 13 -4 16 -10z m-2255 -4
c0 -9 -22 -66 -26 -66 -13 0 -45 44 -40 56 4 12 66 22 66 10z m2087 -22 c-3
-3 -12 -4 -19 -1 -8 3 -5 6 6 6 11 1 17 -2 13 -5z m-607 -35 c0 -5 -4 -9 -10
-9 -5 0 -10 7 -10 16 0 8 5 12 10 9 6 -3 10 -10 10 -16z m103 -29 c10 -16 14
-30 8 -30 -10 0 -41 39 -41 52 0 17 17 6 33 -22z m-843 10 c0 -14 -35 -30 -64
-30 -19 0 -26 5 -26 20 0 17 7 20 45 20 25 0 45 -4 45 -10z m461 -21 c10 -19
9 -20 -10 -9 -12 6 -21 18 -21 26 0 19 16 10 31 -17z m489 11 c0 -11 -4 -20
-9 -20 -11 0 -22 26 -14 34 12 12 23 5 23 -14z m736 -48 c-5 -5 -49 20 -58 33
-18 24 -5 24 27 -2 19 -15 32 -29 31 -31z m-2066 39 c0 -6 -10 -17 -22 -25
-25 -18 -118 -22 -118 -6 0 15 20 21 133 39 4 0 7 -3 7 -8z m796 -38 c-7 -7
-26 7 -26 19 0 6 6 6 15 -2 9 -7 13 -15 11 -17z m138 11 c3 -8 2 -12 -4 -9 -6
3 -10 10 -10 16 0 14 7 11 14 -7z m-1514 -14 c0 -5 -4 -10 -10 -10 -5 0 -10 5
-10 10 0 6 5 10 10 10 6 0 10 -4 10 -10z m1020 -10 c0 -5 -4 -10 -10 -10 -5 0
-10 5 -10 10 0 6 5 10 10 10 6 0 10 -4 10 -10z m140 -1 c0 -5 -11 -9 -25 -9
-33 0 -33 15 0 16 14 1 25 -2 25 -7z m-823 -21 c-3 -8 -6 -5 -6 6 -1 11 2 17
5 13 3 -3 4 -12 1 -19z m1108 12 c3 -5 1 -10 -4 -10 -6 0 -11 5 -11 10 0 6 2
10 4 10 3 0 8 -4 11 -10z m635 -11 c0 -4 -7 -6 -15 -3 -8 4 -15 10 -15 15 0 4
7 6 15 3 8 -4 15 -10 15 -15z m-230 -9 c0 -5 -4 -10 -10 -10 -5 0 -10 5 -10
10 0 6 5 10 10 10 6 0 10 -4 10 -10z"/>
<path d="M4136 1896 c3 -9 11 -16 16 -16 13 0 5 23 -10 28 -7 2 -10 -2 -6 -12z"/>
<path d="M2869 4066 c-15 -14 -29 -22 -32 -19 -3 3 -22 0 -41 -7 -19 -6 -49
-12 -66 -12 -20 -1 -38 -10 -50 -25 -12 -16 -21 -20 -25 -12 -4 6 -1 15 6 20
10 6 6 9 -13 9 -16 0 -28 -4 -28 -10 0 -5 -5 -10 -11 -10 -6 0 -8 9 -4 20 5
16 3 19 -12 13 -37 -14 -95 -50 -92 -57 2 -4 -3 -12 -13 -17 -13 -7 -15 -21
-12 -71 5 -78 16 -112 66 -210 46 -91 73 -111 186 -139 69 -17 189 -26 152
-12 -8 4 -20 13 -26 21 -6 8 -25 15 -42 16 -23 1 -31 5 -27 15 3 7 -3 20 -12
27 -16 12 -15 13 12 14 73 3 88 7 101 25 8 10 14 36 14 57 0 30 4 38 18 38 21
0 90 -35 118 -61 22 -20 34 -24 34 -11 0 4 -21 24 -47 43 -63 47 -153 73 -232
67 -34 -2 -61 -1 -61 3 0 10 96 45 147 54 l43 7 -18 24 c-9 13 -27 24 -39 24
-39 0 -123 21 -123 31 0 5 6 9 14 9 8 0 21 6 28 13 17 17 48 29 48 19 0 -5 -5
-13 -12 -20 -19 -19 12 -15 34 5 10 9 18 11 18 5 0 -7 8 -6 25 1 19 9 25 20
25 44 0 17 -4 35 -10 38 -5 3 -10 -1 -10 -9 0 -9 -6 -16 -14 -16 -8 0 -18 -9
-21 -20 -3 -11 -11 -20 -16 -20 -15 0 7 35 40 63 25 20 28 28 18 41 -11 15
-15 14 -38 -8z m-151 -441 c-2 -1 -13 1 -26 6 -20 8 -21 11 -11 31 l12 22 14
-28 c8 -15 13 -29 11 -31z"/>
<path d="M3950 4081 c0 -5 7 -11 15 -15 9 -3 15 0 15 9 0 8 -7 15 -15 15 -8 0
-15 -4 -15 -9z"/>
<path d="M2991 4046 c-14 -14 -30 -26 -38 -26 -7 0 -13 -3 -13 -7 0 -5 -3 -18
-6 -30 -9 -35 8 -27 41 17 16 23 35 38 41 36 15 -6 40 21 30 31 -4 4 -11 1
-15 -6 -6 -9 -10 -10 -12 -2 -3 8 -14 2 -28 -13z"/>
<path d="M380 4031 c0 -11 -4 -23 -10 -26 -17 -11 -11 -35 9 -35 13 0 20 9 25
30 8 43 29 38 24 -5 -4 -35 -4 -35 14 -17 15 15 17 23 9 45 -8 21 -17 27 -41
27 -23 0 -30 -4 -30 -19z"/>
<path d="M3055 4029 c-10 -15 1 -22 24 -14 12 3 19 11 16 16 -8 12 -32 11 -40
-2z"/>
<path d="M25 3988 c-9 -23 2 -51 17 -46 18 6 20 22 4 43 -14 19 -15 19 -21 3z"/>
<path d="M140 3930 c-7 -4 -18 -6 -25 -4 -16 7 -48 -76 -35 -91 10 -12 -3 -74
-18 -84 -5 -3 -16 -19 -24 -36 -8 -16 -20 -29 -26 -27 -9 1 -12 -36 -11 -140
1 -83 4 -130 8 -113 9 36 50 108 86 149 14 16 25 33 25 38 0 11 -17 10 -24 -1
-5 -7 -38 -8 -78 -2 -13 2 -9 41 4 46 12 4 85 14 136 18 33 3 27 26 -13 43
-37 15 -44 28 -21 41 16 9 24 62 13 80 -4 6 2 27 13 46 21 35 16 53 -10 37z"/>
<path d="M423 3793 c-14 -5 -18 -33 -5 -33 5 0 16 6 26 13 15 11 16 15 5 19
-8 3 -20 3 -26 1z"/>
<path d="M267 3773 c-11 -10 -8 -33 4 -33 5 0 8 4 4 9 -3 6 3 14 12 20 15 9
15 10 2 11 -9 0 -19 -3 -22 -7z"/>
<path d="M280 3716 c0 -16 21 -56 30 -56 14 0 13 33 -2 48 -12 12 -28 16 -28
8z"/>
<path d="M2016 3438 c-4 -9 -5 -21 -2 -27 4 -5 2 -12 -3 -15 -13 -8 -6 -79 7
-84 7 -2 12 -8 12 -14 0 -6 7 -16 16 -23 15 -11 15 -12 -5 -18 -14 -3 -24 0
-28 9 -3 8 -16 14 -29 14 -13 0 -24 5 -24 10 0 16 -15 12 -40 -10 -13 -11 -29
-20 -36 -20 -16 0 -27 49 -19 86 l6 29 -28 -31 c-38 -42 -60 -52 -113 -50 -29
1 -53 -5 -69 -16 -13 -10 -30 -18 -37 -18 -8 0 -14 -6 -14 -13 0 -7 -12 -18
-27 -25 -87 -40 -161 -100 -140 -114 9 -6 8 -11 -5 -18 -14 -9 -15 -15 -6 -38
5 -15 10 -46 9 -69 -1 -24 3 -43 8 -43 12 0 26 -39 22 -64 -6 -41 24 -6 63 75
28 57 47 85 61 88 17 3 18 1 6 -13 -12 -14 -10 -16 13 -14 14 1 26 8 26 15 0
7 5 13 10 13 6 0 10 -4 10 -9 0 -5 15 -4 35 2 19 6 35 15 34 21 -1 6 -1 18 0
26 1 13 2 13 11 0 9 -13 12 -13 25 4 11 14 11 21 2 31 -7 8 -16 10 -21 5 -5
-5 -18 -4 -30 3 -20 11 -19 12 14 17 21 4 46 1 63 -7 15 -8 27 -11 27 -7 0 4
6 1 14 -5 7 -6 21 -9 30 -5 11 4 16 1 16 -13 0 -28 20 -43 60 -44 19 0 29 -3
23 -6 -20 -7 -15 -23 6 -23 11 0 23 -4 26 -10 3 -5 16 -10 28 -10 12 0 33 -12
46 -26 16 -16 27 -22 34 -15 6 6 17 5 32 -5 31 -20 102 9 315 129 25 14 79 35
120 47 41 12 104 36 138 52 l64 31 -21 20 c-34 34 -123 35 -221 3 -51 -17 -92
-25 -113 -22 -17 3 -58 8 -89 12 -32 4 -58 11 -58 16 0 5 -17 8 -38 7 -21 -2
-44 1 -52 6 -8 5 -23 8 -32 7 -20 -4 -25 14 -5 21 6 2 0 8 -14 11 -17 5 -30
19 -38 41 -7 19 -23 43 -35 53 -13 10 -26 27 -28 38 -4 17 -6 17 -12 2z"/>
<path d="M2816 3382 c-2 -4 -4 -37 -4 -74 l0 -66 37 -16 c20 -8 53 -18 73 -22
23 -4 35 -10 31 -17 -4 -6 0 -8 10 -4 9 3 17 2 19 -2 2 -4 50 -24 107 -44 116
-41 151 -60 151 -83 0 -8 5 -12 10 -9 35 21 60 14 91 -25 19 -23 35 -36 39
-30 9 14 -7 130 -20 145 -6 7 -5 16 2 23 9 9 7 16 -8 27 -23 18 -66 39 -76 37
-5 -1 -8 2 -8 7 0 5 -25 14 -55 20 -30 6 -81 17 -112 23 -32 7 -65 13 -73 13
-8 0 -17 2 -20 5 -15 15 -172 91 -165 80 5 -8 3 -11 -6 -8 -8 3 -13 11 -11 17
2 13 -4 15 -12 3z"/>
<path d="M550 3171 c0 -6 5 -13 10 -16 6 -3 10 1 10 9 0 9 -4 16 -10 16 -5 0
-10 -4 -10 -9z"/>
<path d="M0 2854 c0 -176 1 -186 22 -215 23 -30 23 -31 4 -45 -11 -8 -20 -23
-21 -34 -2 -18 4 -20 57 -20 52 0 73 10 49 24 -10 7 -23 57 -27 106 -8 91 -12
193 -8 178 10 -32 25 -19 24 20 0 20 0 46 0 57 1 11 -20 39 -50 66 l-50 47 0
-184z"/>
<path d="M1640 2985 c0 -9 5 -15 11 -13 6 2 11 8 11 13 0 5 -5 11 -11 13 -6 2
-11 -4 -11 -13z"/>
<path d="M1573 2973 c-7 -2 -13 -18 -13 -35 0 -23 4 -29 15 -24 10 4 19 -3 26
-18 6 -13 21 -29 33 -34 35 -18 121 -56 126 -57 3 0 11 -4 18 -8 6 -5 17 -5
22 -2 6 3 10 2 10 -3 0 -5 20 -15 44 -21 55 -14 94 -13 46 1 -33 9 -34 10 -15
25 17 12 40 13 140 6 175 -12 507 -9 605 6 101 15 222 44 271 64 32 14 26 14
-86 10 -66 -2 -185 -14 -264 -25 -150 -21 -244 -21 -436 1 -49 6 -119 13 -155
16 -81 8 -93 10 -105 16 -6 3 -23 6 -38 7 -44 3 -135 32 -151 48 -14 14 -61
35 -74 33 -4 0 -13 -3 -19 -6z"/>
<path d="M366 2911 c-4 -5 3 -15 15 -21 18 -10 20 -9 17 6 -4 20 -23 30 -32
15z"/>
<path d="M1740 1915 c19 -19 36 -35 39 -35 3 0 -10 16 -29 35 -19 19 -36 35
-39 35 -3 0 10 -16 29 -35z"/>
<path d="M3950 1830 c0 -5 7 -10 16 -10 8 0 12 5 9 10 -3 6 -10 10 -16 10 -5
0 -9 -4 -9 -10z"/>
<path d="M1898 1780 c12 -5 22 -13 22 -19 0 -5 17 -17 38 -26 48 -23 47 -22
32 -40 -19 -23 2 -65 29 -58 12 3 21 1 21 -6 0 -6 -9 -11 -19 -11 -25 0 -34
-14 -26 -40 5 -15 12 -19 29 -14 16 4 25 0 30 -11 5 -13 2 -15 -16 -9 -20 6
-21 5 -10 -8 16 -19 50 -29 58 -17 10 17 22 9 29 -21 4 -16 11 -30 16 -30 5 0
9 -4 9 -10 0 -5 -14 -7 -32 -4 -28 4 -30 4 -15 -6 11 -7 33 -9 51 -6 28 5 34
3 46 -19 10 -19 11 -28 2 -37 -9 -9 -16 -7 -27 8 -16 18 -16 18 -10 -4 4 -13
1 -29 -5 -37 -10 -12 -9 -15 4 -15 10 0 15 4 12 9 -3 5 3 11 14 14 13 3 20 0
20 -9 0 -12 8 -13 36 -8 27 5 35 4 30 -5 -4 -6 -2 -11 3 -11 6 0 11 -7 11 -15
0 -9 6 -12 15 -9 9 4 15 0 15 -7 0 -9 7 -6 18 7 9 12 25 24 35 27 10 4 15 12
11 18 -4 7 0 9 14 5 20 -7 37 7 37 29 0 6 14 11 30 13 17 2 45 18 65 36 19 19
52 50 74 70 21 20 43 36 50 36 6 0 4 5 -4 11 -12 8 -11 9 6 4 23 -6 57 26 69
65 4 12 12 17 22 13 12 -5 14 -3 8 7 -5 9 -4 11 3 6 7 -4 17 -2 24 3 7 6 24
20 38 32 18 15 20 19 7 15 -25 -8 -17 16 9 29 11 6 35 23 54 38 33 26 33 27 7
18 -15 -6 -39 -17 -55 -24 -93 -47 -294 -75 -509 -71 -181 3 -252 18 -366 75
-32 16 -64 29 -70 28 -7 0 -2 -4 11 -9z m832 -110 c0 -5 -7 -10 -16 -10 -8 0
-12 5 -9 10 3 6 10 10 16 10 5 0 9 -4 9 -10z m-53 -6 c-3 -3 -12 -4 -19 -1 -8
3 -5 6 6 6 11 1 17 -2 13 -5z m-387 -14 c0 -5 -7 -10 -16 -10 -8 0 -12 5 -9
10 3 6 10 10 16 10 5 0 9 -4 9 -10z m230 0 c-20 -13 -33 -13 -25 0 3 6 14 10
23 10 15 0 15 -2 2 -10z m110 0 c0 -5 -4 -10 -10 -10 -5 0 -10 5 -10 10 0 6 5
10 10 10 6 0 10 -4 10 -10z m-250 -101 c0 -4 -7 -6 -15 -3 -8 4 -15 10 -15 15
0 4 7 6 15 3 8 -4 15 -10 15 -15z m107 -20 c1 -18 -1 -29 -4 -25 -10 10 -15
56 -6 56 4 0 9 -14 10 -31z m113 -15 c0 -2 -7 -4 -15 -4 -8 0 -15 4 -15 10 0
5 7 7 15 4 8 -4 15 -8 15 -10z m-337 -94 c23 -27 22 -30 -8 -17 -14 7 -25 18
-25 25 0 18 13 15 33 -8z m47 -90 c0 -5 -4 -10 -9 -10 -6 0 -13 5 -16 10 -3 6
1 10 9 10 9 0 16 -4 16 -10z"/>
<path d="M1860 1736 c0 -9 5 -16 10 -16 6 0 10 4 10 9 0 6 -4 13 -10 16 -5 3
-10 -1 -10 -9z"/>
<path d="M1902 1671 c7 -11 16 -17 20 -14 10 5 -10 33 -23 33 -5 0 -4 -9 3
-19z"/>
<path d="M2215 1280 c-3 -6 1 -7 9 -4 18 7 21 14 7 14 -6 0 -13 -4 -16 -10z"/>
<path d="M4960 1036 c0 -2 24 -19 52 -36 29 -18 46 -25 39 -16 -14 17 -91 61
-91 52z"/>
<path d="M4972 984 c10 -10 20 -16 22 -13 3 3 -5 11 -17 18 -21 13 -21 12 -5
-5z"/>
<path d="M4947 956 c21 -36 113 -92 113 -69 0 11 -55 53 -69 53 -5 0 -11 7
-15 15 -3 8 -12 15 -21 15 -11 0 -13 -5 -8 -14z"/>
<path d="M445 780 c-3 -5 -1 -10 4 -10 6 0 11 5 11 10 0 6 -2 10 -4 10 -3 0
-8 -4 -11 -10z"/>
<path d="M66 730 c-29 -36 -32 -52 -12 -69 12 -10 17 -4 30 40 9 29 14 54 12
56 -2 2 -15 -10 -30 -27z"/>
<path d="M1 394 c0 -11 3 -14 6 -6 3 7 2 16 -1 19 -3 4 -6 -2 -5 -13z"/>
<path d="M410 240 c0 -5 5 -10 10 -10 6 0 10 5 10 10 0 6 -4 10 -10 10 -5 0
-10 -4 -10 -10z"/>
<path d="M5047 204 c6 -35 5 -35 -15 -23 -32 20 -37 4 -11 -37 12 -21 17 -34
11 -30 -12 7 -14 -3 -17 -81 l-1 -33 53 0 53 0 0 78 c0 66 -3 82 -20 97 -11
10 -20 23 -20 29 0 6 -9 17 -19 23 -18 12 -19 10 -14 -23z"/>
<path d="M340 51 c-13 -34 -3 -65 12 -37 5 9 14 13 21 9 7 -4 6 0 -2 10 -7 9
-11 24 -7 32 11 29 -12 15 -24 -14z"/>
<path d="M4861 21 c-12 -8 -9 -11 11 -16 28 -7 48 -1 48 16 0 12 -40 12 -59 0z"/>
</g>
</svg>
